<svg xmlns="http://www.w3.org/2000/svg" width="475.24" height="77.648" viewBox="0 0 475.24 77.648"><linearGradient id="a" gradientUnits="userSpaceOnUse" x1=".42" y1="38.824" x2="475.51" y2="38.824"><stop offset=".075" stop-color="#a7a9ac"/><stop offset=".543" stop-color="#d1d3d4"/><stop offset=".919" stop-color="#a7a9ac"/></linearGradient><path fill="url(#a)" d="M87.426 53.661c0 7.353-2.615 13.264-7.845 17.735-5.001 4.169-11.254 6.253-18.758 6.253H1.591L13.376 64.12h47.447c3.713 0 6.935-.833 9.664-2.501 3.107-2.046 4.661-4.812 4.661-8.299 0-3.485-1.591-6.176-4.774-8.072-2.654-1.592-5.837-2.388-9.55-2.388H24.216c-6.747 0-12.393-1.856-16.939-5.57C2.425 33.273 0 27.967 0 21.373 0 14.855 2.425 9.589 7.276 5.571 11.823 1.858 17.469 0 24.216 0h71.315L82.765 13.529H24.216c-2.578 0-4.775.721-6.594 2.16-1.819 1.44-2.728 3.374-2.728 5.798 0 2.501.909 4.434 2.728 5.798 1.819 1.364 4.017 2.046 6.594 2.046h36.607c7.503 0 13.757 2.16 18.758 6.48 5.23 4.548 7.845 10.499 7.845 17.85z"/><linearGradient id="b" gradientUnits="userSpaceOnUse" x1=".42" y1="38.824" x2="475.511" y2="38.824"><stop offset=".075" stop-color="#a7a9ac"/><stop offset=".543" stop-color="#d1d3d4"/><stop offset=".919" stop-color="#a7a9ac"/></linearGradient><path fill="url(#b)" d="M104.294 0L91.527 13.529h33.642v64.119h13.415V13.529h25.672L176.041 0z"/><linearGradient id="c" gradientUnits="userSpaceOnUse" x1=".419" y1="38.824" x2="475.514" y2="38.824"><stop offset=".075" stop-color="#a7a9ac"/><stop offset=".543" stop-color="#d1d3d4"/><stop offset=".919" stop-color="#a7a9ac"/></linearGradient><path fill="url(#c)" d="M234.12 54.229c6.517-1.743 11.671-4.812 15.462-9.209 4.092-4.698 6.139-10.306 6.139-16.826 0-9.55-3.523-16.787-10.572-21.714C239.01 2.16 230.938 0 220.932 0h-37.047L172.1 13.529h50.993c12.277 0 18.417 4.851 18.417 14.552 0 4.775-1.932 8.452-5.798 11.028-3.41 2.199-7.616 3.296-12.619 3.296h-43.254l-7.856 13.415h43.949l21.714 21.828h20.01L234.12 54.229z"/><linearGradient id="d" gradientUnits="userSpaceOnUse" x1=".418" y1="38.824" x2="475.515" y2="38.824"><stop offset=".075" stop-color="#a7a9ac"/><stop offset=".543" stop-color="#d1d3d4"/><stop offset=".919" stop-color="#a7a9ac"/></linearGradient><path fill="url(#d)" d="M285.193 77.648h-13.529V0h13.529v77.648z"/><g><linearGradient id="e" gradientUnits="userSpaceOnUse" x1=".419" y1="39.449" x2="475.511" y2="39.449"><stop offset=".075" stop-color="#a7a9ac"/><stop offset=".543" stop-color="#d1d3d4"/><stop offset=".919" stop-color="#a7a9ac"/></linearGradient><path fill="url(#e)" d="M401.721 0l-44.338 71.282c-3.107 5.079-5.912 7.617-8.412 7.617-2.426 0-5.193-2.539-8.299-7.617L297.242 0h17.395l34.676 57.64L384.328 0h17.393z"/></g><g><linearGradient id="f" gradientUnits="userSpaceOnUse" x1=".425" y1="70.884" x2="475.511" y2="70.884"><stop offset=".075" stop-color="#a7a9ac"/><stop offset=".543" stop-color="#d1d3d4"/><stop offset=".919" stop-color="#a7a9ac"/></linearGradient><path fill="url(#f)" d="M408.316 77.648h67.075V64.12h-53.547z"/></g><g><linearGradient id="g" gradientUnits="userSpaceOnUse" x1="-21.23" y1="38.256" x2="479.079" y2="38.256"><stop offset=".075" stop-color="#a7a9ac"/><stop offset=".543" stop-color="#d1d3d4"/><stop offset=".919" stop-color="#a7a9ac"/></linearGradient><path fill="url(#g)" d="M421.844 31.492h-13.528V45.02h66.924V31.492z"/></g><g><linearGradient id="h" gradientUnits="userSpaceOnUse" x1=".425" y1="6.765" x2="475.511" y2="6.765"><stop offset=".075" stop-color="#a7a9ac"/><stop offset=".543" stop-color="#d1d3d4"/><stop offset=".919" stop-color="#a7a9ac"/></linearGradient><path fill="url(#h)" d="M475.391 13.529V0h-67.075l13.528 13.529z"/></g></svg>