<svg xmlns="http://www.w3.org/2000/svg" width="1536" height="1536" viewBox="128 128 1536 1536"><path d="M365 1414h231V720H365v694zm246-908c-.667-34.667-12.667-63.333-36-86s-54.333-34-93-34-70.167 11.333-94.5 34-36.5 51.333-36.5 86c0 34 11.833 62.5 35.5 85.5S441 626 479 626h1c39.333 0 71-11.5 95-34.5s36-51.5 36-85.5zm585 908h231v-398c0-102.667-24.333-180.333-73-233s-113-79-193-79c-90.667 0-160.333 39-209 117h2V720H723c2 44 2 275.333 0 694h231v-388c0-25.333 2.333-44 7-56 10-23.333 25-43.167 45-59.5s44.667-24.5 74-24.5c77.333 0 116 52.333 116 157v371zm468-998v960c0 79.333-28.167 147.167-84.5 203.5S1455.333 1664 1376 1664H416c-79.333 0-147.167-28.167-203.5-84.5S128 1455.333 128 1376V416c0-79.333 28.167-147.167 84.5-203.5S336.667 128 416 128h960c79.333 0 147.167 28.167 203.5 84.5S1664 336.667 1664 416z"/></svg>