<svg xmlns="http://www.w3.org/2000/svg" width="1920" height="1536" viewBox="-64 128 1920 1536"><path d="M621.167 621.167c0 45.805-16.032 84.74-48.096 116.804s-70.998 48.097-116.803 48.097-84.74-16.032-116.804-48.096-48.096-70.998-48.096-116.803 16.032-84.74 48.096-116.804c32.064-32.063 71-48.096 116.804-48.096s84.74 16.032 116.804 48.096c32.064 32.063 48.097 70.998 48.097 116.804zm879.467 329.8v384.767H291.367v-164.9L566.2 896l137.417 137.417 439.733-439.733 357.284 357.283zm82.45-604.634H208.916c-7.443 0-13.884 2.72-19.324 8.16-5.44 5.44-8.16 11.88-8.16 19.323v1044.367c0 7.443 2.72 13.885 8.16 19.324 5.44 5.438 11.88 8.16 19.324 8.16h1374.167c7.444 0 13.886-2.722 19.324-8.16 5.44-5.44 8.16-11.88 8.16-19.324V373.816c0-7.443-2.72-13.884-8.16-19.324-5.44-5.44-11.88-8.16-19.325-8.16zm137.416 27.483v1044.367c0 37.79-13.455 70.14-40.366 97.05-26.91 26.91-59.26 40.366-97.05 40.366H208.916c-37.79 0-70.14-13.456-97.05-40.367-26.91-26.91-40.366-59.26-40.366-97.05V373.816c0-37.79 13.456-70.14 40.367-97.05 26.91-26.91 59.26-40.366 97.05-40.366h1374.167c37.79 0 70.14 13.456 97.05 40.366 26.91 26.91 40.366 59.26 40.366 97.05z"/></svg>